# xmcd
#
# Track frame offsets:
#	150
#	23535
#	45470
#	90460
#	112526
#	132554
#	152132
#	173133
#	195976
#	216898
#	240690
#	260802
#	280641
#	303547
#
# Disc length: 4289 seconds
#
# Revision: 0
# Processed by: cddbd v1.5.1PL2 Copyright (c) Steve Scherf et al.
# Submitted via: dBpowerAMP V4.0
#
DISCID=b310bf0e
DTITLE=Varios - Vallenatos de Oro Vol.31
DYEAR=2006
DGENRE=Country
TTITLE0=01- El amor de mi sábana - Peter Manjarrés - Sergio Luis Rodríguez
TTITLE1=02 - Hasta que regrese - Propuesta Vallenata
TTITLE2=03 - El higuerón - Binomio de Oro de América
TTITLE3=04 - Cuánto duele - Herbert Vargas - John Lozano
TTITLE4=05 - Es tan difícil - Binomio de Oro de América
TTITLE5=06 - Me cansé - Jorge Oñate - Christian Camilo
TTITLE6=07 - Llora - Binomio de Oro de América
TTITLE7=08 - Full de amor - Santiago - Leonardo Farfán
TTITLE8=09 - El amor de los dos - Peter Manjarrés - Sergio Luis Rodríguez
TTITLE9=010 - Enseñame a olvidar - Christian y Sus Infieles
TTITLE10=011 - Grafiti de amor - Binomio de Oro de América
TTITLE11=012 - El ratón y el queso - Antonio Urbina - Rafael Urbina
TTITLE12=013 - Ayer y hoy - La Combinación Vallenata
TTITLE13=014 - Tu indiferencia - Luifer Cuello - Manuel Julián
EXTD=El album original trae un disco en formato DVD, con selecciones del presente disco.
EXTT0=
EXTT1=
EXTT2=
EXTT3=
EXTT4=
EXTT5=
EXTT6=
EXTT7=
EXTT8=
EXTT9=
EXTT10=
EXTT11=
EXTT12=
EXTT13=
PLAYORDER=
